<mxfile host="drawio-plugin" modified="2022-06-15T21:59:34.901Z" agent="5.0 (X11; Linux x86_64) AppleWebKit/537.36 (KHTML, like Gecko) Chrome/84.0.4147.105 Safari/537.36" etag="nVenF2ERg6riIG26X6LE" version="14.7.4" type="embed"><diagram id="kgpKYQtTHZ0yAKxKKP6v" name="Page-1"><mxGraphModel dx="1118" dy="725" grid="1" gridSize="10" guides="1" tooltips="1" connect="1" arrows="1" fold="1" page="1" pageScale="1" pageWidth="850" pageHeight="1100" math="0" shadow="0"><root><mxCell id="0"/><mxCell id="1" parent="0"/><mxCell id="3nuBFxr9cyL0pnOWT2aG-1" value="Failover&#10;Coordinator R" style="shape=umlLifeline;perimeter=lifelinePerimeter;container=1;collapsible=0;recursiveResize=0;rounded=0;shadow=0;strokeWidth=1;" parent="1" vertex="1"><mxGeometry x="350" y="90" width="100" height="260" as="geometry"/></mxCell><mxCell id="3nuBFxr9cyL0pnOWT2aG-2" value="" style="points=[];perimeter=orthogonalPerimeter;rounded=0;shadow=0;strokeWidth=1;" parent="3nuBFxr9cyL0pnOWT2aG-1" vertex="1"><mxGeometry x="45" y="70" width="10" height="190" as="geometry"/></mxCell><mxCell id="3nuBFxr9cyL0pnOWT2aG-5" value="Topology Director" style="shape=umlLifeline;perimeter=lifelinePerimeter;container=1;collapsible=0;recursiveResize=0;rounded=0;shadow=0;strokeWidth=1;" parent="1" vertex="1"><mxGeometry x="570" y="280" width="100" height="230" as="geometry"/></mxCell><mxCell id="3nuBFxr9cyL0pnOWT2aG-9" value="FailoverStatus&#10;TopologyState" style="verticalAlign=bottom;endArrow=block;shadow=0;strokeWidth=1;exitX=0.1;exitY=0.206;exitDx=0;exitDy=0;exitPerimeter=0;startArrow=block;startFill=1;" parent="1" source="3nuBFxr9cyL0pnOWT2aG-6" edge="1"><mxGeometry x="0.1834" y="-24" relative="1" as="geometry"><mxPoint x="555" y="210" as="sourcePoint"/><mxPoint x="410" y="170" as="targetPoint"/><mxPoint as="offset"/></mxGeometry></mxCell><mxCell id="O2KzVNcmPztIQmy5xaa1-1" value="Failover&#10;Coordinator S" style="shape=umlLifeline;perimeter=lifelinePerimeter;container=0;collapsible=0;recursiveResize=0;rounded=0;shadow=0;strokeWidth=1;" parent="1" vertex="1"><mxGeometry x="340" y="510" width="100" height="260" as="geometry"/></mxCell><mxCell id="O2KzVNcmPztIQmy5xaa1-8" value="Nodes D,E,F&#10;(Shard DEF)&#10;" style="shape=umlLifeline;perimeter=lifelinePerimeter;container=0;collapsible=0;recursiveResize=0;rounded=0;shadow=0;strokeWidth=1;verticalAlign=middle;" parent="1" vertex="1"><mxGeometry x="90" y="510" width="100" height="260" as="geometry"/></mxCell><mxCell id="O2KzVNcmPztIQmy5xaa1-11" value="" style="group" parent="1" vertex="1" connectable="0"><mxGeometry x="100" y="90" width="110" height="260" as="geometry"/></mxCell><mxCell id="O2KzVNcmPztIQmy5xaa1-5" value="Nodes A,B,C&#10;(Shard ABC)&#10;" style="shape=umlLifeline;perimeter=lifelinePerimeter;container=0;collapsible=0;recursiveResize=0;rounded=0;shadow=0;strokeWidth=1;verticalAlign=middle;" parent="O2KzVNcmPztIQmy5xaa1-11" vertex="1"><mxGeometry width="100" height="260" as="geometry"/></mxCell><mxCell id="O2KzVNcmPztIQmy5xaa1-6" value="" style="points=[];perimeter=orthogonalPerimeter;rounded=0;shadow=0;strokeWidth=1;" parent="O2KzVNcmPztIQmy5xaa1-11" vertex="1"><mxGeometry x="45" y="70" width="10" height="190" as="geometry"/></mxCell><mxCell id="O2KzVNcmPztIQmy5xaa1-27" value="" style="curved=1;endArrow=none;html=1;startArrow=classic;startFill=1;endFill=0;" parent="O2KzVNcmPztIQmy5xaa1-11" edge="1"><mxGeometry width="50" height="50" relative="1" as="geometry"><mxPoint x="60" y="160" as="sourcePoint"/><mxPoint x="60" y="130" as="targetPoint"/><Array as="points"><mxPoint x="110" y="140"/><mxPoint x="60" y="130"/></Array></mxGeometry></mxCell><mxCell id="O2KzVNcmPztIQmy5xaa1-28" value="Set slot(s) to migrating " style="edgeLabel;html=1;align=center;verticalAlign=middle;resizable=0;points=[];" parent="O2KzVNcmPztIQmy5xaa1-27" vertex="1" connectable="0"><mxGeometry x="-0.3272" y="7" relative="1" as="geometry"><mxPoint x="57" y="-6" as="offset"/></mxGeometry></mxCell><mxCell id="O2KzVNcmPztIQmy5xaa1-12" value="&lt;div&gt;FLOTILLA.ASSIGN_SLOTS&lt;/div&gt;&lt;div&gt;Assign slot X to shard DEF&lt;/div&gt;" style="endArrow=classic;html=1;" parent="1" edge="1"><mxGeometry x="0.0476" y="-20" width="50" height="50" relative="1" as="geometry"><mxPoint x="835" y="400" as="sourcePoint"/><mxPoint x="625" y="400" as="targetPoint"/><Array as="points"><mxPoint x="725" y="400"/></Array><mxPoint as="offset"/></mxGeometry></mxCell><mxCell id="O2KzVNcmPztIQmy5xaa1-13" value="FailoverStatus&lt;br&gt;TopologyState" style="endArrow=classic;html=1;entryX=1;entryY=0.026;entryDx=0;entryDy=0;entryPerimeter=0;exitX=0.2;exitY=0.194;exitDx=0;exitDy=0;exitPerimeter=0;startArrow=classic;startFill=1;" parent="1" source="3nuBFxr9cyL0pnOWT2aG-6" target="O2KzVNcmPztIQmy5xaa1-2" edge="1"><mxGeometry x="-0.2138" y="-32" width="50" height="50" relative="1" as="geometry"><mxPoint x="590" y="380" as="sourcePoint"/><mxPoint x="580" y="540" as="targetPoint"/><mxPoint as="offset"/></mxGeometry></mxCell><mxCell id="O2KzVNcmPztIQmy5xaa1-2" value="" style="points=[];perimeter=orthogonalPerimeter;rounded=0;shadow=0;strokeWidth=1;" parent="1" vertex="1"><mxGeometry x="385" y="580" width="10" height="190" as="geometry"/></mxCell><mxCell id="O2KzVNcmPztIQmy5xaa1-14" value="&lt;div&gt;&amp;nbsp;Periodic heartBeat / ACK&lt;/div&gt;&lt;div&gt;Includes full cluster topo on epoch change&lt;/div&gt;" style="endArrow=classic;startArrow=classic;html=1;" parent="1" edge="1"><mxGeometry width="50" height="50" relative="1" as="geometry"><mxPoint x="160" y="180" as="sourcePoint"/><mxPoint x="390" y="180" as="targetPoint"/></mxGeometry></mxCell><mxCell id="O2KzVNcmPztIQmy5xaa1-15" value="&lt;div&gt;Periodic heartBeat / ACK&lt;/div&gt;&lt;div&gt;Includes full cluster topo on epoch change&lt;/div&gt;" style="endArrow=classic;startArrow=classic;html=1;exitX=1.4;exitY=0.116;exitDx=0;exitDy=0;exitPerimeter=0;" parent="1" source="O2KzVNcmPztIQmy5xaa1-9" edge="1"><mxGeometry width="50" height="50" relative="1" as="geometry"><mxPoint x="110" y="600" as="sourcePoint"/><mxPoint x="380" y="600" as="targetPoint"/></mxGeometry></mxCell><mxCell id="3nuBFxr9cyL0pnOWT2aG-6" value="" style="points=[];perimeter=orthogonalPerimeter;rounded=0;shadow=0;strokeWidth=1;" parent="1" vertex="1"><mxGeometry x="615" y="380" width="10" height="160" as="geometry"/></mxCell><mxCell id="O2KzVNcmPztIQmy5xaa1-25" value="&lt;p style=&quot;margin: 0px ; margin-top: 4px ; text-align: center ; text-decoration: underline&quot;&gt;TopologyState&lt;/p&gt;&lt;hr&gt;&lt;p style=&quot;margin: 0px ; margin-left: 8px&quot;&gt;Full list of Nodes:&amp;nbsp;&lt;/p&gt;&lt;p style=&quot;margin: 0px ; margin-left: 8px&quot;&gt;Node UID&lt;/p&gt;&lt;p style=&quot;margin: 0px ; margin-left: 8px&quot;&gt;Shard UID&lt;br&gt;&lt;/p&gt;&lt;p style=&quot;margin: 0px ; margin-left: 8px&quot;&gt;Node role (non-authorative -&amp;nbsp;&lt;span&gt;Role is ignored if the FC owns the shard.&lt;/span&gt;&lt;span&gt;)&lt;/span&gt;&lt;/p&gt;&lt;p style=&quot;margin: 0px ; margin-left: 8px&quot;&gt;&lt;br&gt;&lt;/p&gt;&lt;p style=&quot;margin: 0px ; margin-left: 8px&quot;&gt;&lt;span&gt;And full list of shards&lt;/span&gt;&lt;/p&gt;&lt;p style=&quot;margin: 0px ; margin-left: 8px&quot;&gt;&lt;span&gt;Slotrange (X migrating to DEF)&lt;/span&gt;&lt;br&gt;&lt;/p&gt;&lt;p style=&quot;margin: 0px ; margin-left: 8px&quot;&gt;&lt;br&gt;&lt;/p&gt;&lt;p style=&quot;margin: 0px ; margin-left: 8px&quot;&gt;Can optimize to do deltas / to aggregate changes.&lt;br&gt;&lt;/p&gt;" style="verticalAlign=top;align=left;overflow=fill;fontSize=12;fontFamily=Helvetica;html=1;whiteSpace=wrap;" parent="1" vertex="1"><mxGeometry x="610" y="20" width="225" height="200" as="geometry"/></mxCell><mxCell id="O2KzVNcmPztIQmy5xaa1-29" value="" style="curved=1;endArrow=none;html=1;startArrow=classic;startFill=1;endFill=0;" parent="1" edge="1"><mxGeometry width="50" height="50" relative="1" as="geometry"><mxPoint x="150" y="670" as="sourcePoint"/><mxPoint x="150" y="640" as="targetPoint"/><Array as="points"><mxPoint x="200" y="650"/><mxPoint x="150" y="640"/></Array></mxGeometry></mxCell><mxCell id="O2KzVNcmPztIQmy5xaa1-30" value="Set slot(s) to importing " style="edgeLabel;html=1;align=center;verticalAlign=middle;resizable=0;points=[];" parent="O2KzVNcmPztIQmy5xaa1-29" vertex="1" connectable="0"><mxGeometry x="-0.3272" y="7" relative="1" as="geometry"><mxPoint x="57" y="-6" as="offset"/></mxGeometry></mxCell><mxCell id="O2KzVNcmPztIQmy5xaa1-31" value="&lt;div align=&quot;left&quot;&gt;During export/import stage, we follow current OSS semantics of MOVED / ASK.&lt;/div&gt;&lt;div align=&quot;left&quot;&gt;&lt;br&gt;&lt;/div&gt;" style="text;html=1;strokeColor=none;fillColor=none;align=center;verticalAlign=top;whiteSpace=wrap;rounded=0;" parent="1" vertex="1"><mxGeometry x="10" y="130" width="120" height="90" as="geometry"/></mxCell><mxCell id="O2KzVNcmPztIQmy5xaa1-9" value="" style="points=[];perimeter=orthogonalPerimeter;rounded=0;shadow=0;strokeWidth=1;" parent="1" vertex="1"><mxGeometry x="135" y="580" width="10" height="190" as="geometry"/></mxCell><mxCell id="O2KzVNcmPztIQmy5xaa1-39" value="" style="curved=1;endArrow=classic;html=1;" parent="1" edge="1"><mxGeometry width="50" height="50" relative="1" as="geometry"><mxPoint x="160" y="270" as="sourcePoint"/><mxPoint x="130" y="700" as="targetPoint"/><Array as="points"><mxPoint x="300" y="390"/><mxPoint x="50" y="510"/><mxPoint x="50" y="660"/><mxPoint x="130" y="700"/></Array></mxGeometry></mxCell><mxCell id="O2KzVNcmPztIQmy5xaa1-42" value="&lt;div align=&quot;left&quot;&gt;MIGRATE command -- Client driven,direct transfer of keys.&lt;/div&gt;&lt;div align=&quot;left&quot;&gt;&lt;div align=&quot;left&quot;&gt;Keys which are in the process of being copied are locked to writes.&lt;/div&gt;&lt;div align=&quot;left&quot;&gt;If trying to copy a locked key again (due to not receiving an ACK) must never overwrite.&lt;/div&gt;&lt;/div&gt;" style="text;html=1;strokeColor=none;fillColor=none;align=left;verticalAlign=middle;whiteSpace=wrap;rounded=0;" parent="1" vertex="1"><mxGeometry x="10" y="270" width="130" height="160" as="geometry"/></mxCell><mxCell id="O2KzVNcmPztIQmy5xaa1-43" value="&lt;div&gt;Periodic heartBeat / ACK&lt;/div&gt;&lt;div&gt;Includes full cluster topo on epoch change&lt;/div&gt;" style="endArrow=classic;startArrow=classic;html=1;exitX=1.4;exitY=0.116;exitDx=0;exitDy=0;exitPerimeter=0;" parent="1" edge="1"><mxGeometry width="50" height="50" relative="1" as="geometry"><mxPoint x="145" y="732.04" as="sourcePoint"/><mxPoint x="376" y="730" as="targetPoint"/></mxGeometry></mxCell><mxCell id="O2KzVNcmPztIQmy5xaa1-44" value="&lt;p style=&quot;margin: 0px ; margin-top: 4px ; text-align: center ; text-decoration: underline&quot;&gt;ASSIGN_SLOTS&lt;/p&gt;&lt;hr&gt;&lt;p style=&quot;margin: 0px ; margin-left: 8px&quot;&gt;A list of shards and the slots which belong to them.&lt;/p&gt;&lt;p style=&quot;margin: 0px ; margin-left: 8px&quot;&gt;&lt;br&gt;&lt;/p&gt;&lt;p style=&quot;margin: 0px ; margin-left: 8px&quot;&gt;Both can be partial so the client can only specify the specific shard/slot they want to assign.&lt;/p&gt;" style="verticalAlign=top;align=left;overflow=fill;fontSize=12;fontFamily=Helvetica;html=1;whiteSpace=wrap;" parent="1" vertex="1"><mxGeometry x="605" y="560" width="230" height="120" as="geometry"/></mxCell><mxCell id="O2KzVNcmPztIQmy5xaa1-45" value="&lt;div&gt;FLOTILLA.MIGRATION_DONE&lt;br&gt;&lt;/div&gt;&lt;div&gt;Clear the Migration/Importing flags&lt;br&gt;&lt;/div&gt;" style="endArrow=classic;html=1;" parent="1" edge="1"><mxGeometry x="0.0476" y="-20" width="50" height="50" relative="1" as="geometry"><mxPoint x="835" y="490" as="sourcePoint"/><mxPoint x="625" y="490" as="targetPoint"/><Array as="points"><mxPoint x="725" y="490"/></Array><mxPoint as="offset"/></mxGeometry></mxCell><mxCell id="2" value="&lt;p style=&quot;margin: 0px ; margin-top: 4px ; text-align: center ; text-decoration: underline&quot;&gt;MIGRATION_DONE&lt;/p&gt;&lt;hr&gt;&lt;p style=&quot;margin: 0px ; margin-left: 8px&quot;&gt;A list of shards and the slots which have been migrated to them.&lt;/p&gt;&lt;p style=&quot;margin: 0px ; margin-left: 8px&quot;&gt;&lt;br&gt;&lt;/p&gt;" style="verticalAlign=top;align=left;overflow=fill;fontSize=12;fontFamily=Helvetica;html=1;whiteSpace=wrap;" parent="1" vertex="1"><mxGeometry x="605" y="690" width="230" height="70" as="geometry"/></mxCell></root></mxGraphModel></diagram></mxfile>